<?xml version="1.0" encoding="utf-8"?>
<!-- Generator: Adobe Illustrator 25.4.0, SVG Export Plug-In . SVG Version: 6.00 Build 0)  -->
<svg version="1.1" id="Layer_1" xmlns="http://www.w3.org/2000/svg" xmlns:xlink="http://www.w3.org/1999/xlink" x="0px" y="0px"
	 viewBox="0 0 1108.13 381.63" style="enable-background:new 0 0 1108.13 381.63;" xml:space="preserve">
<style type="text/css">
	.st0{fill-rule:evenodd;clip-rule:evenodd;fill:#FFFFFF;}
	.st1{fill:#FFFFFF;}
	.st2{fill-rule:evenodd;clip-rule:evenodd;}
</style>
<g>
	<g>
		<g>
			<g>
				<g>
					<g>
						<g>
							<g>
								<g>
									<g>
										<g>
											<rect x="167.63" y="160.42" class="st2" width="23.85" height="90.18"/>
											<rect x="167.63" y="125.83" class="st2" width="23.55" height="22.49"/>
											<path class="st2" d="M277.99,167.62c-2.1-2.7-4.83-4.91-8.17-6.45c-3.37-1.59-7.35-2.38-12-2.38
												c-4.58,0-8.94,0.79-13.07,2.54c-4.19,1.73-8.01,3.8-11.61,6.4v-7.32h-22.23v88.56h23.87v-62.4
												c2.3-2.37,4.89-4.3,7.75-5.71c2.86-1.39,6.07-2.16,9.37-2.16c3.18,0,5.34,0.96,6.57,2.96c0.53,1.22,0.99,2.7,1.37,4.56
												c0.43,1.88,0.6,4.2,0.6,6.88v55.87h23.84v-59.64c0-4.2-0.51-8.24-1.56-11.98C281.67,173.59,280.11,170.3,277.99,167.62"
												/>
											<path class="st2" d="M328.89,132.32h-23.86v28.1h-11.75v19.94h11.75v49.16c0,7.19,2.06,12.52,6.06,15.92
												c4.02,3.44,9.47,5.16,16.32,5.16c1.97,0,3.74,0,5.36-0.07c1.66-0.09,3.05-0.19,4.28-0.25c1.22-0.09,2.47-0.25,3.76-0.45
												c1.3-0.14,2.85-0.46,4.75-0.86v-20.41l-5.89,1.43c-1.68,0.43-3.48,0.67-5.41,0.67c-1.62,0-2.9-0.24-3.91-0.67
												c-0.96-0.36-1.45-1.5-1.45-3.43v-46.2h16.66v-19.94h-16.66V132.32z"/>
											<path class="st2" d="M400.01,227.63c-2.75,2.06-6.21,3.04-10.36,3.04c-0.58,0-1.12,0-1.64-0.03
												c-2.52-0.17-4.58-0.75-6.19-1.79c-1.97-1.22-3.52-2.74-4.68-4.69c-1.13-1.97-1.97-4.19-2.45-6.71
												c-0.5-2.53-0.91-5.07-1.19-7.69h14.5h36.75v-11.42c0-5.84-0.97-11.01-3.01-15.7c-2.04-4.64-4.63-8.9-7.93-12.56
												c-6.79-7.52-15.29-11.28-25.63-11.28h-0.18c-6.71,0.02-12.46,1.27-17.24,3.76c-4.79,2.54-8.84,5.89-12.03,10.05
												c-3.15,4.16-5.45,9.07-6.91,14.61c-1.47,5.56-2.2,11.36-2.2,17.48c0,5.96,0.73,11.8,2.2,17.26
												c1.47,5.46,3.77,10.34,6.8,14.62c3.03,4.21,6.92,7.66,11.71,10.18c4.83,2.56,10.57,3.86,17.16,3.86h0.52
												c8.28-0.06,15.21-1.48,20.92-4.27c3.03-1.39,5.84-3.3,8.54-5.79c2.71-2.47,5.32-5.63,7.96-9.54l-17.65-11.14
												C405.43,223.06,402.83,225.62,400.01,227.63 M375.03,186.57c0.6-1.88,1.45-3.43,2.53-4.8c1.06-1.4,2.44-2.46,4.19-3.19
												c1.69-0.76,3.75-1.15,6.27-1.15c4.32,0,7.76,1.36,10.28,4.24c2.39,2.7,3.77,6.29,4.1,10.79h-14.38h-14.38
												C373.96,190.43,374.46,188.43,375.03,186.57"/>
											<rect x="439.97" y="127.45" class="st2" width="23.86" height="121.53"/>
											<rect x="485.37" y="127.45" class="st2" width="23.84" height="121.53"/>
											<path class="st2" d="M572.52,227.63c-2.8,2.06-6.24,3.04-10.37,3.04c-0.57,0-1.11,0-1.63-0.03
												c-2.54-0.17-4.58-0.75-6.24-1.79c-1.93-1.22-3.49-2.74-4.62-4.69c-1.16-1.97-1.97-4.18-2.45-6.71
												c-0.51-2.53-0.91-5.07-1.22-7.69h14.54h36.71v-11.42c0-5.84-0.96-11.01-2.98-15.7c-2.04-4.64-4.65-8.9-7.95-12.56
												c-6.76-7.52-15.27-11.28-25.64-11.28h-0.15c-6.71,0.02-12.47,1.27-17.23,3.76c-4.86,2.54-8.84,5.89-12,10.05
												c-3.23,4.16-5.47,9.07-7,14.61c-1.41,5.56-2.14,11.36-2.14,17.48c0,5.96,0.73,11.8,2.14,17.26
												c1.53,5.46,3.76,10.34,6.83,14.62c3.03,4.21,6.94,7.66,11.76,10.18c4.81,2.56,10.52,3.86,17.12,3.86h0.52
												c8.26-0.06,15.19-1.48,20.92-4.27c3.01-1.39,5.85-3.3,8.54-5.79c2.71-2.47,5.29-5.63,7.93-9.54l-17.64-11.14
												C577.9,223.06,575.28,225.62,572.52,227.63 M547.51,186.57c0.57-1.88,1.48-3.43,2.56-4.8c1.04-1.4,2.41-2.46,4.14-3.19
												c1.76-0.76,3.78-1.15,6.31-1.15c4.33,0,7.75,1.36,10.28,4.24c2.37,2.7,3.79,6.29,4.07,10.79h-14.35h-14.4
												C546.45,190.43,546.94,188.43,547.51,186.57"/>
											<path class="st2" d="M657.23,221.78c-1.06,1.71-2.32,3.18-3.69,4.47c-1.4,1.32-2.89,2.39-4.56,3.19
												c-1.73,0.82-3.7,1.22-5.97,1.22c-5.49,0-9.34-2.03-11.61-6.21c-2.52-4.49-3.75-11.03-3.75-19.78
												c0-8.78,1.23-15.43,3.75-19.74c2.17-4.2,5.93-6.25,11.24-6.25c2.32,0,4.26,0.35,5.82,1.09c1.55,0.73,2.93,1.64,4.17,2.84
												c1.22,1.25,2.21,2.61,3.1,4.31c0.89,1.6,1.69,3.3,2.42,5.18l20.1-7.84c-1.86-4.98-3.99-9.19-6.38-12.35
												c-2.33-3.2-5.31-5.71-8.64-7.58c-6.47-3.69-13.28-5.57-20.72-5.57c-11.84,0-21.35,4.19-28.27,12.44
												c-6.97,8.24-10.46,19.49-10.46,33.63c0,6.21,0.72,12.11,2.29,17.56c1.53,5.49,3.81,10.38,7,14.56
												c3.18,4.15,7.2,7.52,12.17,9.94c4.98,2.46,10.79,3.69,17.55,3.69c8.27,0,15.16-1.72,20.43-5.07
												c2.72-1.72,5.3-4.09,7.84-7.01c2.54-2.95,5.15-6.78,7.83-11.6l-18.44-10.44C659.41,218.33,658.27,220.05,657.23,221.78"
												/>
											<path class="st2" d="M735.77,180.37v-19.94H719.1v-28.1h-23.8v28.1h-11.76v19.94h11.76v49.16
												c0,7.19,2.02,12.52,5.99,15.92c4.04,3.44,9.52,5.16,16.34,5.16c1.98,0,3.78,0,5.43-0.07c1.63-0.09,3.01-0.19,4.24-0.25
												c1.22-0.09,2.46-0.25,3.79-0.45c1.26-0.13,2.83-0.46,4.69-0.86v-20.41l-5.85,1.43c-1.71,0.45-3.51,0.68-5.38,0.68
												c-1.63,0-2.97-0.22-3.95-0.68c-0.98-0.36-1.48-1.5-1.48-3.42v-46.2H735.77z"/>
										</g>
									</g>
								</g>
							</g>
						</g>
					</g>
				</g>
			</g>
		</g>
		<g>
			<path d="M745.97,112.42v156.79h194.52V112.42H745.97z M851.22,249.14l-6.98-20.61h-43.54l-6.98,20.61h-29.75l42.21-116.66h32.9
				l42.21,116.66H851.22z M922.5,249.14h-28.42V132.48h28.42V249.14z"/>
			<polygon points="808.17,206.6 836.92,206.6 822.47,163.89 			"/>
		</g>
	</g>
</g>
</svg>
